<?xml version="1.0" encoding="utf-8"?>
<!-- Generator: Adobe Illustrator 26.2.1, SVG Export Plug-In . SVG Version: 6.00 Build 0)  -->
<svg version="1.1" id="Layer_1" xmlns="http://www.w3.org/2000/svg" xmlns:xlink="http://www.w3.org/1999/xlink" x="0px" y="0px"
	 viewBox="0 0 1366 992" style="enable-background:new 0 0 1366 992;" xml:space="preserve">
<style type="text/css">
	.st0{fill:#F4CDE0;}
	.st1{fill:none;stroke:#019A7B;stroke-width:8;stroke-miterlimit:10;}
	.st2{fill:#F8CA4C;}
	.st3{fill:#36C4EB;}
	.st4{fill:#019A7B;}
	.st5{fill:none;stroke:#36C4EB;stroke-width:12;stroke-miterlimit:10;}
</style>
<g>
	<g>
		<rect x="0.5" y="0.5" class="st0" width="1365" height="991"/>
		<path class="st0" d="M1365,1v990H1V1H1365 M1366,0H0v992h1366V0L1366,0z"/>
	</g>
</g>
<path class="st1" d="M1490,710"/>
<g>
	<g>
		<path class="st2" d="M1315,602v125h-169V602H1315 M1327,590h-193v149h193V590L1327,590z"/>
	</g>
	<g>
		<path class="st3" d="M1142.5,650c40.5,0,73.5,33,73.5,73.5c0,40.5-33,73.5-73.5,73.5c-40.5,0-73.5-33-73.5-73.5
			C1069,683,1102,650,1142.5,650 M1142.5,638L1142.5,638c-47.2,0-85.5,38.3-85.5,85.5v0c0,47.2,38.3,85.5,85.5,85.5h0
			c47.2,0,85.5-38.3,85.5-85.5v0C1228,676.3,1189.7,638,1142.5,638L1142.5,638z"/>
	</g>
</g>
<g>
	<g>
		<path class="st2" d="M98.9,407.5c1.3,0,2.5,0.1,3.6,0.4c5.4,1.4,10.9,7.1,14.6,14.7c6.2,13,6,29-0.6,43.9l-30.2,67.8l50.1-54.8
			c10.8-11.9,25.3-18.7,39.7-18.7c9.6,0,18.1,3.1,22.1,8.2c7.4,9.4,4.7,31.8-10.9,48.9l-0.7,0.8l-0.6,0.9
			c-13.6,21.2-36.8,33.9-62,33.9c-14,0-27.7-4-39.6-11.6C50.1,519.9,40.1,474.3,62,440.2l0.6-0.9l0.4-1
			C71.1,418.2,87.5,407.5,98.9,407.5 M98.9,395.5c-16.5,0-37.1,14-47,38.3l0,0C26.4,473.5,38,526.4,77.8,551.8l0,0
			c14.3,9.1,30.2,13.5,46,13.5c28.2,0,55.8-13.9,72.1-39.4l0,0c19.9-21.7,22.7-50.2,11.5-64.4c-6.3-7.9-18-12.7-31.5-12.7
			c-15.8,0-34,6.6-48.6,22.6c15.8-35.5-1.5-69.6-21.8-75C103.5,395.7,101.2,395.5,98.9,395.5L98.9,395.5z"/>
	</g>
	<g>
		<path class="st4" d="M135.9,394.9l60.6,38.8L91.9,597.1l-60.6-38.8L135.9,394.9 M132.3,378.3L14.7,561.9l80.8,51.8l117.6-183.6
			L132.3,378.3L132.3,378.3z"/>
	</g>
</g>
<g>
	<g>
		<path class="st5" d="M1158.5,99.5c6.4-21.6,14.1-37.9,23-38c13.8-0.2,20.4,38.3,35,38c14.7-0.3,19.6-39.4,34-40
			c9.7-0.4,18.8,16.9,26,36"/>
		<path class="st5" d="M1158.7,165c6.4-21.6,14.1-37.9,23-38c13.8-0.2,20.4,38.3,35,38c14.7-0.3,19.6-39.4,34-40
			c9.7-0.4,18.8,16.9,26,36"/>
		<path class="st5" d="M1158.7,132c6.4-21.6,14.1-37.9,23-38c13.8-0.2,20.4,38.3,35,38c14.7-0.3,19.6-39.4,34-40
			c9.7-0.4,18.8,16.9,26,36"/>
	</g>
	<g>
		<path class="st4" d="M1315,39v147h-61V39H1315 M1327,27h-85v171h85V27L1327,27z"/>
	</g>
</g>
</svg>
